<svg id="Layer_1" data-name="Layer 1" xmlns="http://www.w3.org/2000/svg" viewBox="0 0 2565.35 822.05"><defs><style>.cls-1{fill:#2f4792;}</style></defs><path class="cls-1" d="M191.34,382.68l63.78-63.78,63.78,63.78,63.78-63.78L318.9,255.12l63.78-63.78L318.9,127.56l-63.78,63.78-63.78-63.78-63.78,63.78,63.78,63.78L127.56,318.9Zm14.43-142-49.35-49.35,34.92-34.92,49.35,49.35,14.43,14.43,14.43-14.43,49.35-49.35,34.91,34.92-49.34,49.35L290,255.12l14.44,14.43,49.34,49.35L318.9,353.81l-49.35-49.34L255.12,290l-14.43,14.44-49.35,49.34L156.42,318.9l49.35-49.35,14.43-14.43Z"/><path class="cls-1" d="M503.15,382.68l63.78-63.78,63.78,63.78,63.78-63.78-63.78-63.78,63.78-63.78-63.78-63.78-63.78,63.78-63.78-63.78-63.78,63.78,63.78,63.78L439.37,318.9Zm14.43-142-49.35-49.35,34.92-34.92,49.35,49.35,14.43,14.43,14.43-14.43,49.35-49.35,34.91,34.92-49.34,49.35-14.43,14.43,14.43,14.43,49.34,49.35-34.91,34.91-49.35-49.34L566.93,290,552.5,304.47l-49.35,49.34L468.23,318.9l49.35-49.35L532,255.12Z"/><path class="cls-1" d="M191.34,694.49l63.78-63.78,63.78,63.78,63.78-63.78L318.9,566.93l63.78-63.78L318.9,439.37l-63.78,63.78-63.78-63.78-63.78,63.78,63.78,63.78-63.78,63.78Zm14.43-142-49.35-49.35,34.92-34.92,49.35,49.35L255.12,532l14.43-14.43,49.35-49.35,34.91,34.92L304.47,552.5,290,566.93l14.44,14.43,49.34,49.35L318.9,665.62l-49.35-49.34-14.43-14.43-14.43,14.43-49.35,49.34-34.92-34.91,49.35-49.35,14.43-14.43Z"/><polygon class="cls-1" points="503.15 694.49 566.93 630.71 630.71 694.49 694.49 630.71 630.71 566.93 694.49 503.15 630.71 439.37 566.93 503.15 503.15 439.37 439.37 503.15 503.15 566.93 439.37 630.71 503.15 694.49"/><path class="cls-1" d="M835.71,131.58h210.81v52.24H917.15v55.46h95.14v47.43H917.15V398H835.71Z"/><path class="cls-1" d="M1055.51,264.6c0-98.86,51.17-137,144.51-137s144.5,37.78,144.5,137-51.17,137-144.5,137S1055.51,363.87,1055.51,264.6Zm202.89,0c0-61.89-19.1-84-58.38-84-39.64,0-59.1,22.5-59.1,84,0,62.29,19.1,84,59.1,84C1239.3,348.6,1258.4,326.49,1258.4,264.6Z"/><path class="cls-1" d="M1649.57,131.58h96.94c115,0,146.3,18.08,146.3,82.79,0,39-16.21,61.49-49,65.1,55.89,0,55.13,91.39,55.13,118.56H1817.5c0-27.86,1.68-95.65-56.94-95.65H1731V398h-81.44Zm109.91,122.57c35.31,0,49-7.23,49-35.36,0-29.34-13.33-35.77-49.73-35.77H1731v71.13Z"/><path class="cls-1" d="M1992.8,187.78h-75.31v-56.2H2149.2v56.2h-75.32V398H1992.8Z"/><path class="cls-1" d="M2182.93,131.58h81.44V236.07h88.29V131.58h81.8V398h-81.8V288.72h-88.29V398h-81.44Z"/><path class="cls-1" d="M822.05,606.07h87.64c-.28,25.6,12.69,41,50.15,41,34.56,0,51.62-8.85,51.62-26.93,0-41.8-187.33-19.69-187.33-117.35,0-52.25,48.71-82,132.8-82,102.41,0,131.14,35.59,131.14,81.58h-82.66c0-22.48-13.1-35.77-46-35.77-27.9,0-42.88,8.44-42.88,24.51,0,43.41,187.75,18.49,187.75,119,0,56.27-47,84.4-142,84.4C846.19,694.49,822.05,663.86,822.05,606.07Z"/><path class="cls-1" d="M1199.83,480.62h-87v-56.2h267.68v56.2h-87V690.87h-93.67Z"/><path class="cls-1" d="M1411.1,424.42h112c132.8,0,169,18.09,169,82.79,0,39-18.73,61.49-56.61,65.1,68,0,63.69,89.48,63.69,118.56H1605.1c0-23.56,4.72-95.65-65.78-95.65h-34.14v95.65H1411.1Zm127,122.58c40.8,0,56.62-7.24,56.62-35.37,0-29.34-15.4-35.77-57.45-35.77h-32.06V547Z"/><path class="cls-1" d="M1727.11,424.42h94.09V690.87h-94.09Z"/><path class="cls-1" d="M1985.11,576.34l-37.46,33.35v81.18h-94.09V424.42h94.09V540.57l96.16-116.15h111.57l-108.24,96.45,123.23,170H2050.06Z"/><path class="cls-1" d="M2192.18,424.42h242.28v52.25h-148.2v55.46h111.16v47.42H2286.26v58.67H2437.8v52.65H2192.18Z"/><path class="cls-1" d="M1376,291.93V131.58h81.44V291.93c0,40.19,11.89,56.67,48.65,56.67,35.31,0,47.57-16.48,47.57-56.67V131.58h63.42V291.93c0,73.55-39.64,109.71-112.07,109.71C1416.69,401.64,1376,368.69,1376,291.93Z"/></svg>