<svg id="Layer_1" data-name="Layer 1" xmlns="http://www.w3.org/2000/svg" viewBox="0 0 822.05 822.05"><defs><style>.cls-1{fill:#2f4792;}</style></defs><path class="cls-1" d="M191.34,382.68l63.78-63.78,63.78,63.78,63.78-63.78L318.9,255.12l63.78-63.78L318.9,127.56l-63.78,63.78-63.78-63.78-63.78,63.78,63.78,63.78L127.56,318.9Zm14.43-142-49.35-49.35,34.92-34.92,49.35,49.35,14.43,14.43,14.43-14.43,49.35-49.35,34.91,34.92-49.34,49.35L290,255.12l14.44,14.43,49.34,49.35L318.9,353.81l-49.35-49.34L255.12,290l-14.43,14.44-49.35,49.34L156.42,318.9l49.35-49.35,14.43-14.43Z"/><path class="cls-1" d="M503.15,382.68l63.78-63.78,63.78,63.78,63.78-63.78-63.78-63.78,63.78-63.78-63.78-63.78-63.78,63.78-63.78-63.78-63.78,63.78,63.78,63.78L439.37,318.9Zm14.43-142-49.35-49.35,34.92-34.92,49.35,49.35,14.43,14.43,14.43-14.43,49.35-49.35,34.91,34.92-49.34,49.35-14.43,14.43,14.43,14.43,49.34,49.35-34.91,34.91-49.35-49.34L566.93,290,552.5,304.47l-49.35,49.34L468.23,318.9l49.35-49.35L532,255.12Z"/><path class="cls-1" d="M191.34,694.49l63.78-63.78,63.78,63.78,63.78-63.78L318.9,566.93l63.78-63.78L318.9,439.37l-63.78,63.78-63.78-63.78-63.78,63.78,63.78,63.78-63.78,63.78Zm14.43-142-49.35-49.35,34.92-34.92,49.35,49.35L255.12,532l14.43-14.43,49.35-49.35,34.91,34.92L304.47,552.5,290,566.93l14.44,14.43,49.34,49.35L318.9,665.62l-49.35-49.34-14.43-14.43-14.43,14.43-49.35,49.34-34.92-34.91,49.35-49.35,14.43-14.43Z"/><polygon class="cls-1" points="503.15 694.49 566.93 630.71 630.71 694.49 694.49 630.71 630.71 566.93 694.49 503.15 630.71 439.37 566.93 503.15 503.15 439.37 439.37 503.15 503.15 566.93 439.37 630.71 503.15 694.49"/></svg>